Coordinates
version=1
nRows=8
nColumns=40
inDegrees=yes

Units are S.I. units (second, meters, Newtons, ...)
Angles are in degrees.

endheader
time	pelvis_tilt	pelvis_list	pelvis_rotation	pelvis_tx	pelvis_ty	pelvis_tz	hip_flexion_r	hip_adduction_r	hip_rotation_r	knee_angle_r	knee_angle_r_beta	ankle_angle_r	subtalar_angle_r	mtp_angle_r	hip_flexion_l	hip_adduction_l	hip_rotation_l	knee_angle_l	knee_angle_l_beta	ankle_angle_l	subtalar_angle_l	mtp_angle_l	lumbar_extension	lumbar_bending	lumbar_rotation	arm_flex_r	arm_add_r	arm_rot_r	elbow_flex_r	pro_sup_r	wrist_flex_r	wrist_dev_r	arm_flex_l	arm_add_l	arm_rot_l	elbow_flex_l	pro_sup_l	wrist_flex_l	wrist_dev_l
     17.67000000	     -4.10864489	     -5.64154345	      6.78725423	      0.77737350	      0.92040208	      0.47195458	      0.19864214	      4.31288735	    -19.21008575	     10.58280598	     10.58280598	     15.97862296	     -1.21788877	     -4.82731844	     29.54925382	     -5.97770624	      0.19860926	     21.14919888	     21.14919888	      3.06154707	     -9.55174971	      3.20927619	     -8.02065291	      5.83222491	      3.25989097	     44.05522005	    -16.19295579	     -2.06666410	    106.24085674	     43.36971603	      0.00000000	      0.00000000	    -11.26662300	     -7.47943249	      2.29760698	     29.50427129	     44.32412391	      0.00000000	      0.00000000
     17.68285714	     -4.16201615	     -5.58868910	      6.66256958	      0.77853540	      0.91949218	      0.47035387	     -0.26447208	      4.17105880	    -19.03915579	     10.64793123	     10.64793123	     16.27127428	     -1.19232381	     -4.83352750	     29.36737088	     -5.93836448	      0.08304025	     21.81196565	     21.81196565	      2.76456702	     -9.89877299	      3.15860450	     -7.88370631	      5.64941434	      3.29381726	     43.85369596	    -15.87148816	     -1.91169678	    106.25912997	     43.37214283	      0.00000000	      0.00000000	    -10.85104259	     -7.64261427	      2.27470796	     29.63607742	     44.34105555	      0.00000000	      0.00000000
     17.69571429	     -4.25718223	     -5.50636246	      6.55918316	      0.77960598	      0.91876317	      0.46853489	     -0.67356589	      3.97448563	    -18.85540973	     10.71591117	     10.71591117	     16.51939786	     -1.17553258	     -4.84166237	     29.20175734	     -5.82344898	      0.02381090	     22.37208234	     22.37208234	      2.67556889	    -10.20934219	      3.06949948	     -7.73859214	      5.49207274	      3.21521392	     43.57713839	    -15.62462456	     -1.77566332	    106.23422576	     43.37146035	      0.00000000	      0.00000000	    -10.30702772	     -7.79665325	      2.24870003	     29.82406532	     44.35659302	      0.00000000	      0.00000000
     17.70857143	     -4.26646297	     -5.46126460	      6.41316922	      0.78066106	      0.91818867	      0.46671426	     -1.05496291	      3.77913875	    -18.69287596	     11.01252487	     11.01252487	     16.73418483	     -1.23278885	     -4.66165518	     29.14677047	     -5.71897347	      0.20975508	     23.28548438	     23.28548438	      2.81469535	    -10.97678997	      2.80056748	     -7.69413245	      5.31826609	      3.27699928	     43.01717066	    -15.33872649	     -1.64196432	    106.10388181	     43.38140580	      0.00000000	      0.00000000	     -9.87135504	     -7.96811989	      2.18073003	     29.99567521	     44.38282154	      0.00000000	      0.00000000
     17.72142857	     -4.43791179	     -5.35578190	      6.30426319	      0.78143466	      0.91774596	      0.46460144	     -1.14736931	      3.44974706	    -18.47644808	     11.50968556	     11.50968556	     17.06233371	     -1.39767843	     -4.10625393	     29.13250465	     -5.43572166	      0.56695118	     23.90614847	     23.90614847	      2.99688343	    -11.89809177	      2.60482323	     -7.51282359	      5.14534012	      3.32975360	     42.44214161	    -15.19463531	     -1.68767648	    105.77694446	     43.42072787	      0.00000000	      0.00000000	     -9.15450083	     -8.08238677	      2.02415886	     30.25952332	     44.43952536	      0.00000000	      0.00000000
     17.73428571	     -4.44265944	     -5.20650445	      6.16636774	      0.78233245	      0.91783358	      0.46247887	     -1.53674672	      3.11641870	    -18.31013144	     11.76564367	     11.76564367	     17.07667544	     -1.42471822	     -3.99542562	     28.87077788	     -5.20602954	      0.64244319	     24.44882212	     24.44882212	      3.47139359	    -12.32093533	      2.36616265	     -7.54771810	      4.93846006	      3.28635011	     41.76889559	    -14.89099199	     -1.50856602	    105.53653362	     43.42514846	      0.00000000	      0.00000000	     -8.43686963	     -8.22954761	      1.97269095	     30.48898396	     44.46226564	      0.00000000	      0.00000000
     17.74714286	     -4.57301247	     -5.07793015	      5.95398151	      0.78292090	      0.91789298	      0.46028279	     -1.42179731	      2.65897403	    -18.06269540	     12.71166651	     12.71166651	     17.36457677	     -1.66660812	     -3.32522587	     28.76256678	     -4.91026911	      0.95042214	     25.00876722	     25.00876722	      4.00467722	    -13.29037362	      2.54404747	     -7.43666186	      4.73723309	      3.51020960	     40.87020450	    -14.84212563	     -1.73877154	    104.59753034	     43.49490962	      0.00000000	      0.00000000	     -7.60935542	     -8.31485035	      1.67877601	     30.60011901	     44.54534382	      0.00000000	      0.00000000
     17.76000000	     -4.52096957	     -4.99611181	      5.78676629	      0.78366409	      0.91844834	      0.45806239	     -1.72133290	      2.34368649	    -17.92329421	     13.18847973	     13.18847973	     17.26255971	     -1.72638363	     -3.22170977	     28.39761580	     -4.74296073	      1.03654548	     25.46611218	     25.46611218	      4.62956492	    -13.70096598	      2.35338986	     -7.57819548	      4.65380936	      3.47791306	     39.93745304	    -14.52139339	     -1.54395895	    104.15471399	     43.50487394	      0.00000000	      0.00000000	     -6.78638401	     -8.42583439	      1.60438401	     30.86064073	     44.57337727	      0.00000000	      0.00000000
